<?xml version="1.0" encoding="utf-8"?>
<!-- Generator: Adobe Illustrator 16.0.0, SVG Export Plug-In . SVG Version: 6.00 Build 0)  -->
<!DOCTYPE svg PUBLIC "-//W3C//DTD SVG 1.1//EN" "http://www.w3.org/Graphics/SVG/1.1/DTD/svg11.dtd">
<svg version="1.1" id="Layer_1" xmlns="http://www.w3.org/2000/svg" xmlns:xlink="http://www.w3.org/1999/xlink" x="0px" y="0px"
	 width="25.222px" height="37.642px" viewBox="0 0 25.222 37.642" enable-background="new 0 0 25.222 37.642" xml:space="preserve">
<g id="Delete__x2F__Trash">
	<g>
		<path class= "fill" d="M3.502,35.087c0,0,0.51,2.555,3.147,2.555h11.923c2.638,0,3.148-2.555,3.148-2.555l2.354-25.051H1.147
			L3.502,35.087z M17.196,13.802c0-0.694,0.515-1.255,1.146-1.255c0.634,0,1.147,0.561,1.147,1.255l-1.147,18.82
			c0,0.694-0.514,1.256-1.146,1.256s-1.145-0.562-1.145-1.256L17.196,13.802z M11.464,13.802c0-0.694,0.513-1.255,1.147-1.255
			c0.634,0,1.147,0.561,1.147,1.255v18.82c0,0.694-0.514,1.256-1.147,1.256c-0.635,0-1.147-0.562-1.147-1.256V13.802z M6.879,12.547
			c0.632,0,1.144,0.561,1.144,1.255l1.147,18.82c0,0.694-0.513,1.256-1.147,1.256c-0.63,0-1.144-0.562-1.144-1.256l-1.146-18.82
			C5.732,13.108,6.248,12.547,6.879,12.547z M23.388,5.02h-5.045V2.508C18.343,0.606,17.78,0,16.052,0H9.17
			C7.584,0,6.879,0.839,6.879,2.508V5.02H1.834C0.819,5.02,0,5.862,0,6.903c0,1.041,0.819,1.882,1.834,1.882h21.554
			c1.013,0,1.834-0.842,1.834-1.882C25.222,5.862,24.4,5.02,23.388,5.02z M16.052,5.02H9.17V2.508h6.882V5.02L16.052,5.02z"/>
	</g>
</g>
</svg>
