<?xml version="1.0" encoding="utf-8"?>
<!-- Generator: Adobe Illustrator 16.0.0, SVG Export Plug-In . SVG Version: 6.00 Build 0)  -->
<!DOCTYPE svg PUBLIC "-//W3C//DTD SVG 1.1//EN" "http://www.w3.org/Graphics/SVG/1.1/DTD/svg11.dtd">
<svg version="1.1" id="Layer_1" xmlns="http://www.w3.org/2000/svg" xmlns:xlink="http://www.w3.org/1999/xlink" x="0px" y="0px"
	 width="350.591px" height="98.986px" viewBox="-22 -6 350.591 98.986" enable-background="new -22 -6 350.591 98.986"
	 xml:space="preserve">
<rect x="-21.5" y="26.209" fill="#CF6766" width="350.091" height="17.537"/>
<rect x="-22" y="-6" fill="#DBC35D" width="321" height="32"/>
<rect x="290.26" y="0.305" fill="#B26262" width="29.387" height="8.943"/>
<rect x="-21.5" y="43.746" fill="#B26262" width="295.148" height="7.666"/>
<rect x="299.204" y="43.746" fill="#B26262" width="29.387" height="7.666"/>
<g>
	<path fill="#30415D" d="M116.226,21.637v4.176h-9.445v33.406h-5.52V25.813h-9.445v-4.176H116.226z"/>
	<path fill="#30415D" d="M141.616,45.01c0,2.242-0.226,4.276-0.675,6.102c-0.451,1.826-1.135,3.391-2.055,4.69
		c-0.92,1.302-2.085,2.313-3.496,3.037c-1.41,0.724-3.078,1.085-4.999,1.085c-1.923,0-3.598-0.361-5.029-1.085
		c-1.432-0.724-2.607-1.735-3.527-3.037c-0.92-1.301-1.605-2.864-2.055-4.69c-0.45-1.824-0.674-3.858-0.674-6.102
		c0-2.203,0.224-4.229,0.674-6.074c0.449-1.843,1.135-3.424,2.055-4.744c0.92-1.32,2.095-2.341,3.527-3.065
		c1.431-0.723,3.106-1.084,5.029-1.084c1.921,0,3.588,0.362,4.999,1.084c1.411,0.724,2.575,1.745,3.496,3.065
		c0.92,1.32,1.604,2.901,2.055,4.744C141.391,40.779,141.616,42.807,141.616,45.01z M136.096,45.01c0-1.59-0.103-3.045-0.306-4.365
		c-0.206-1.318-0.532-2.458-0.981-3.417c-0.45-0.957-1.043-1.699-1.779-2.224c-0.736-0.523-1.616-0.786-2.637-0.786
		c-1.064,0-1.953,0.263-2.668,0.786c-0.716,0.524-1.31,1.267-1.779,2.224c-0.471,0.958-0.808,2.097-1.012,3.417
		c-0.205,1.32-0.307,2.775-0.307,4.365c0,1.592,0.102,3.047,0.307,4.366c0.204,1.319,0.541,2.449,1.012,3.39
		c0.469,0.94,1.063,1.672,1.779,2.196c0.715,0.522,1.604,0.786,2.668,0.786c1.021,0,1.901-0.264,2.637-0.786
		c0.736-0.524,1.329-1.256,1.779-2.196c0.449-0.939,0.776-2.068,0.981-3.39C135.994,48.057,136.096,46.602,136.096,45.01z"/>
	<path fill="#30415D" d="M178.967,40.4c0,3.509-0.421,6.479-1.258,8.92c-0.838,2.44-2.045,4.42-3.618,5.939
		c-1.573,1.518-3.476,2.62-5.704,3.307c-2.229,0.688-4.712,1.031-7.451,1.031c-2.779,0-5.726-0.324-8.832-0.977V22.179
		c1.555-0.289,3.066-0.523,4.539-0.705c1.473-0.18,2.883-0.271,4.232-0.271c2.779,0,5.282,0.344,7.512,1.031
		s4.131,1.789,5.704,3.308s2.78,3.498,3.618,5.938C178.546,33.92,178.967,36.895,178.967,40.4z M173.079,40.4
		c0-2.674-0.228-4.952-0.675-6.833c-0.451-1.879-1.146-3.417-2.086-4.61c-0.941-1.193-2.178-2.061-3.711-2.602
		c-1.533-0.542-3.362-0.814-5.487-0.814c-0.573,0-1.146,0.019-1.718,0.055c-0.574,0.037-1.166,0.09-1.778,0.163v29.284
		c0.612,0.072,1.204,0.128,1.778,0.162c0.572,0.037,1.123,0.056,1.656,0.056c2.166,0,4.006-0.271,5.519-0.813
		c1.512-0.544,2.75-1.401,3.711-2.577c0.961-1.174,1.665-2.701,2.116-4.582C172.854,45.408,173.079,43.111,173.079,40.4z"/>
	<path fill="#30415D" d="M189.762,31.344c1.063-0.397,2.186-0.713,3.372-0.949c1.187-0.235,2.474-0.353,3.863-0.353
		c2.862,0,5.192,0.787,6.993,2.359c1.798,1.572,2.697,4.022,2.697,7.347v18.873c-1.473,0.361-2.976,0.65-4.508,0.868
		c-1.535,0.217-3.037,0.323-4.509,0.323s-2.853-0.16-4.14-0.486c-1.288-0.325-2.413-0.85-3.373-1.573
		c-0.961-0.722-1.729-1.635-2.301-2.737c-0.572-1.104-0.857-2.449-0.857-4.041c0-1.481,0.254-2.774,0.766-3.877
		s1.219-2.023,2.116-2.766c0.899-0.741,1.964-1.303,3.188-1.682c1.229-0.381,2.557-0.569,3.988-0.569
		c1.348,0,2.84,0.146,4.478,0.433v-2.603c0-2.096-0.462-3.56-1.382-4.392c-0.92-0.831-2.237-1.248-3.955-1.248
		c-0.94,0-1.83,0.082-2.668,0.244c-0.838,0.163-1.729,0.426-2.667,0.787L189.762,31.344z M192.275,50.92
		c0,1.666,0.49,2.893,1.472,3.688c0.981,0.799,2.37,1.193,4.171,1.193c1.104,0,2.309-0.126,3.619-0.379v-9.056
		c-1.229-0.29-2.434-0.435-3.619-0.435c-0.777,0-1.516,0.079-2.208,0.243c-0.696,0.162-1.299,0.433-1.81,0.813
		c-0.512,0.38-0.911,0.887-1.195,1.518C192.418,49.143,192.275,49.945,192.275,50.92z"/>
	<path fill="#30415D" d="M225.148,53.307c1.186-3.613,2.27-7.246,3.248-10.898c0.981-3.651,1.922-7.538,2.822-11.659h5.213
		c-0.609,2.64-1.271,5.242-1.982,7.809c-0.713,2.567-1.444,5.043-2.198,7.43c-0.754,2.386-1.504,4.637-2.258,6.75
		c-0.753,2.115-1.454,4.039-2.104,5.775c-0.779,2.024-1.527,3.732-2.244,5.125c-0.72,1.391-1.498,2.514-2.34,3.362
		c-0.84,0.849-1.75,1.463-2.734,1.843c-0.985,0.381-2.153,0.569-3.506,0.569c-0.738,0-1.479-0.08-2.215-0.243
		s-1.354-0.335-1.847-0.516l0.983-3.797c1.065,0.396,2.068,0.597,3.013,0.597c1.188,0,2.149-0.379,2.888-1.138
		c0.739-0.76,1.454-1.898,2.15-3.416l0.615-1.356c-0.779-1.88-1.567-3.967-2.367-6.265c-0.799-2.293-1.576-4.689-2.336-7.187
		c-0.758-2.493-1.484-5.051-2.182-7.672s-1.332-5.179-1.904-7.673h5.58c0.326,1.699,0.715,3.561,1.166,5.585
		c0.449,2.025,0.929,4.049,1.439,6.074c0.512,2.024,1.033,3.985,1.564,5.884C224.146,50.189,224.657,51.861,225.148,53.307z"/>
</g>
<path fill="#FFFFFF" d="M49.455,62.682L64.473,77.76c3.364,3.364,6.137,7.195,8.254,11.434l0.53,1.09
	c0.375,0.749,0.25,1.558-0.341,2.148c-0.593,0.592-1.403,0.717-2.151,0.344l-1.09-0.53c-4.236-2.117-8.068-4.89-11.433-8.255
	L43.224,68.911L49.455,62.682z"/>
<path fill="#DDD6CA" d="M46.34,65.795l26.575,26.637c-0.592,0.592-1.402,0.717-2.151,0.344l-1.089-0.53
	c-4.237-2.117-8.068-4.89-11.433-8.255L43.224,68.911L46.34,65.795z"/>
<path fill="#30415D" d="M45.499,44.333c0.996,0.747,1.184,2.118,0.467,3.084c-0.031,0.092-0.125,0.187-0.187,0.247l-8.785,8.787
	l-9.035,8.971c-0.964,0.717-2.336,0.529-3.083-0.467L7.214,42.184c-0.686-0.873-0.592-2.088,0.188-2.867l12.459-12.459
	c0.779-0.779,1.995-0.873,2.866-0.188L45.499,44.333z"/>
<path fill="#242E3D" d="M13.631,33.087l23.363,23.364l-9.035,8.971c-0.964,0.717-2.336,0.529-3.083-0.467L7.214,42.184
	c-0.686-0.873-0.592-2.088,0.188-2.867L13.631,33.087z"/>
<g>
	<path fill="#3B4D63" d="M40.11,47.104L27.648,59.564c-7.724,7.726-7.724,20.312,0,28.037c0.873,0.871,2.243,0.871,3.116,0
		l37.382-37.381c0.872-0.873,0.872-2.242,0-3.115C60.419,39.379,47.835,39.379,40.11,47.104z"/>
	<path fill="#3B4D63" d="M27.648,19.069c1.714,1.713,1.714,4.517,0,6.23L5.843,47.104c-1.713,1.715-4.516,1.715-6.23,0
		c-1.713-1.713-1.713-4.515,0-6.229l21.806-21.806C23.132,17.355,25.935,17.355,27.648,19.069z"/>
</g>
<g>
	<g>
		<path fill="#30415D" d="M33.879,53.335l15.576,15.576L30.764,87.604c-0.873,0.871-2.243,0.871-3.116,0
			c-7.724-7.728-7.724-20.313,0-28.037L33.879,53.335z"/>
		<path fill="#30415D" d="M10.516,29.972l6.229,6.231l-10.902,10.9c-1.713,1.715-4.516,1.715-6.23,0
			c-1.713-1.713-1.713-4.515,0-6.229L10.516,29.972z"/>
	</g>
</g>
</svg>
